<svg xmlns="http://www.w3.org/2000/svg" width="40" height="40" viewBox="0 0 45.946 45.946">
  <path id="facebook" d="M6.73,45.946H21.717V29.614H16.332V24.229h5.384V17.5a6.738,6.738,0,0,1,6.73-6.73h6.73v5.384H29.793A2.7,2.7,0,0,0,27.1,18.845v5.384h7.833l-.9,5.384H27.1V45.946H39.215a6.738,6.738,0,0,0,6.73-6.73V6.73A6.738,6.738,0,0,0,39.215,0H6.73A6.738,6.738,0,0,0,0,6.73V39.215A6.738,6.738,0,0,0,6.73,45.946ZM2.692,6.73A4.043,4.043,0,0,1,6.73,2.692H39.215A4.043,4.043,0,0,1,43.254,6.73V39.215a4.043,4.043,0,0,1-4.038,4.038H29.793V32.306h6.525l1.795-10.769H29.793V18.845h8.076V8.076H28.447A9.433,9.433,0,0,0,19.024,17.5v4.038H13.64V32.306h5.384V43.254H6.73a4.043,4.043,0,0,1-4.038-4.038Zm0,0" fill="#fff"/>
</svg>
