<svg id="instagram" xmlns="http://www.w3.org/2000/svg" width="40" height="40" viewBox="0 0 45.946 45.946">
  <path id="Caminho_5" data-name="Caminho 5" d="M6.73,45.946H39.215a6.738,6.738,0,0,0,6.73-6.73V6.73A6.738,6.738,0,0,0,39.215,0H6.73A6.738,6.738,0,0,0,0,6.73V39.215A6.738,6.738,0,0,0,6.73,45.946ZM2.692,6.73A4.043,4.043,0,0,1,6.73,2.692H39.215A4.043,4.043,0,0,1,43.254,6.73V39.215a4.043,4.043,0,0,1-4.038,4.038H6.73a4.043,4.043,0,0,1-4.038-4.038Zm0,0" fill="#fff"/>
  <path id="Caminho_6" data-name="Caminho 6" d="M133.115,145.229A12.115,12.115,0,1,0,121,133.115,12.129,12.129,0,0,0,133.115,145.229Zm0-21.537a9.422,9.422,0,1,1-9.422,9.422A9.433,9.433,0,0,1,133.115,123.692Zm0,0" transform="translate(-110.142 -110.142)" fill="#fff"/>
  <path id="Caminho_7" data-name="Caminho 7" d="M365.038,69.076A4.038,4.038,0,1,0,361,65.038,4.043,4.043,0,0,0,365.038,69.076Zm0-5.384a1.346,1.346,0,1,1-1.346,1.346A1.348,1.348,0,0,1,365.038,63.692Zm0,0" transform="translate(-328.605 -55.526)" fill="#fff"/>
</svg>
