<svg xmlns="http://www.w3.org/2000/svg" width="40" height="40" viewBox="0 0 45.95 45.95">
  <path id="twitter" d="M45.95,6.137c-2.89.163-2.827.149-3.154.183L44.508.347s-5.343,2.4-6.7,2.831a9.225,9.225,0,0,0-12.626-1.24c-3.1,2.325-4.758,6.319-4.2,10.986C14.955,11.9,9.878,8.413,5.87,2.53L4.6.67,3.655,2.8a15.356,15.356,0,0,0-1.12,8.646,14.315,14.315,0,0,0,.985,3.375L2.433,14.3,2.3,16.522a13.846,13.846,0,0,0,1.644,7.041,12.4,12.4,0,0,0,1.281,1.93l-.562-.105.686,2.544a11.955,11.955,0,0,0,5.2,7.366,79.917,79.917,0,0,1-7.608,3.356L0,39.836l2.723,1.819a25.61,25.61,0,0,0,8.33,3.7c8.056,1.544,17.126.287,23.233-6.433,5.143-5.66,6.831-13.71,6.48-22.088a6.1,6.1,0,0,1,.8-3.408c1.14-1.86,4.377-7.282,4.384-7.294Zm-6.536,5.324a9.913,9.913,0,0,0-1.334,5.546c.354,8.451-1.528,15-5.594,19.477-4.749,5.226-12.409,7.277-21.016,5.628a18.118,18.118,0,0,1-4.5-1.635,64.76,64.76,0,0,0,8.156-4.1l4.7-2.719-5.192-.406A7.2,7.2,0,0,1,8.8,29.2a7.785,7.785,0,0,0,1.977-.4l4.952-1.685-4.993-1.494A7.709,7.709,0,0,1,6.2,21.756,10.418,10.418,0,0,1,5.211,19.1a10.408,10.408,0,0,0,2.026.395l4.622.559L8.2,16.566A10.607,10.607,0,0,1,5.276,6.642c8.234,10.435,17.9,9.651,18.875,9.927a23.572,23.572,0,0,0-.276-2.79C22.629,8.4,25.36,5.663,26.592,4.738a6.919,6.919,0,0,1,9.487.96,2.117,2.117,0,0,0,2.211.723,16.2,16.2,0,0,0,1.822-.677L38.95,9.794h1.482c-.28.458-.615,1.007-1.019,1.665Zm0,0" transform="translate(0 0)" fill="#fff"/>
</svg>
